G04*
G04 #@! TF.GenerationSoftware,Altium Limited,Altium Designer,18.1.7 (191)*
G04*
G04 Layer_Physical_Order=2*
G04 Layer_Color=16711680*
%FSLAX44Y44*%
%MOMM*%
G71*
G01*
G75*
%ADD31R,1.5000X1.5000*%
%ADD39C,0.4000*%
%ADD40C,0.3000*%
%ADD43C,1.5000*%
%ADD44C,3.4000*%
%ADD45C,1.2700*%
%ADD46C,0.4572*%
G36*
X289517Y414610D02*
X290901Y414037D01*
X292146Y413205D01*
X293205Y412146D01*
X294037Y410901D01*
X294610Y409517D01*
X294902Y408049D01*
Y407300D01*
Y12700D01*
Y11951D01*
X294610Y10482D01*
X294037Y9099D01*
X293205Y7854D01*
X292146Y6795D01*
X290901Y5963D01*
X289517Y5390D01*
X288049Y5098D01*
X11951D01*
X10482Y5390D01*
X9099Y5963D01*
X7854Y6795D01*
X6795Y7854D01*
X5963Y9099D01*
X5390Y10482D01*
X5098Y11951D01*
Y12700D01*
Y386519D01*
X6368Y386707D01*
X7260Y383766D01*
X9075Y380372D01*
X11516Y377396D01*
X14492Y374955D01*
X17886Y373140D01*
X21569Y372023D01*
X24130Y371771D01*
Y391280D01*
Y410789D01*
X21569Y410537D01*
X17886Y409420D01*
X14492Y407606D01*
X11516Y405164D01*
X9075Y402188D01*
X7260Y398794D01*
X6368Y395853D01*
X5098Y396041D01*
Y408049D01*
X5390Y409517D01*
X5963Y410901D01*
X6795Y412146D01*
X7854Y413205D01*
X9099Y414037D01*
X10483Y414610D01*
X11951Y414902D01*
X288049D01*
X289517Y414610D01*
D02*
G37*
%LPC*%
G36*
X26670Y410789D02*
Y392550D01*
X44909D01*
X44657Y395111D01*
X43540Y398794D01*
X41726Y402188D01*
X39284Y405164D01*
X36308Y407606D01*
X32914Y409420D01*
X29230Y410537D01*
X26670Y410789D01*
D02*
G37*
G36*
X125610Y410090D02*
X105530D01*
Y390010D01*
X125610D01*
Y410090D01*
D02*
G37*
G36*
X273050Y410177D02*
X270429Y409832D01*
X267987Y408820D01*
X265889Y407211D01*
X264280Y405113D01*
X263268Y402671D01*
X262923Y400050D01*
X263268Y397429D01*
X264280Y394987D01*
X265889Y392889D01*
X267987Y391280D01*
X270429Y390268D01*
X273050Y389923D01*
X275671Y390268D01*
X278113Y391280D01*
X280211Y392889D01*
X281820Y394987D01*
X282832Y397429D01*
X283177Y400050D01*
X282832Y402671D01*
X281820Y405113D01*
X280211Y407211D01*
X278113Y408820D01*
X275671Y409832D01*
X273050Y410177D01*
D02*
G37*
G36*
X189230Y406367D02*
X186609Y406022D01*
X184167Y405010D01*
X182069Y403401D01*
X180460Y401303D01*
X179448Y398861D01*
X179103Y396240D01*
X179448Y393619D01*
X180460Y391177D01*
X182069Y389079D01*
X184167Y387470D01*
X186609Y386458D01*
X189230Y386113D01*
X191851Y386458D01*
X194293Y387470D01*
X196391Y389079D01*
X198000Y391177D01*
X199012Y393619D01*
X199357Y396240D01*
X199012Y398861D01*
X198000Y401303D01*
X196391Y403401D01*
X194293Y405010D01*
X191851Y406022D01*
X189230Y406367D01*
D02*
G37*
G36*
X146050D02*
X143429Y406022D01*
X140987Y405010D01*
X138889Y403401D01*
X137280Y401303D01*
X136268Y398861D01*
X135923Y396240D01*
X136268Y393619D01*
X137280Y391177D01*
X138889Y389079D01*
X140987Y387470D01*
X143429Y386458D01*
X146050Y386113D01*
X148671Y386458D01*
X151113Y387470D01*
X153211Y389079D01*
X154820Y391177D01*
X155832Y393619D01*
X156177Y396240D01*
X155832Y398861D01*
X154820Y401303D01*
X153211Y403401D01*
X151113Y405010D01*
X148671Y406022D01*
X146050Y406367D01*
D02*
G37*
G36*
X274320Y384609D02*
Y375920D01*
X283009D01*
X282832Y377271D01*
X281820Y379713D01*
X280211Y381811D01*
X278113Y383420D01*
X275671Y384432D01*
X274320Y384609D01*
D02*
G37*
G36*
X271780D02*
X270429Y384432D01*
X267987Y383420D01*
X265889Y381811D01*
X264280Y379713D01*
X263268Y377271D01*
X263091Y375920D01*
X271780D01*
Y384609D01*
D02*
G37*
G36*
X156090Y380880D02*
X147320D01*
Y372110D01*
X156090D01*
Y380880D01*
D02*
G37*
G36*
X144780D02*
X136010D01*
Y372110D01*
X144780D01*
Y380880D01*
D02*
G37*
G36*
X44909Y390010D02*
X26670D01*
Y371771D01*
X29230Y372023D01*
X32914Y373140D01*
X36308Y374955D01*
X39284Y377396D01*
X41726Y380372D01*
X43540Y383766D01*
X44657Y387450D01*
X44909Y390010D01*
D02*
G37*
G36*
X283009Y373380D02*
X274320D01*
Y364691D01*
X275671Y364868D01*
X278113Y365880D01*
X280211Y367489D01*
X281820Y369587D01*
X282832Y372029D01*
X283009Y373380D01*
D02*
G37*
G36*
X271780D02*
X263091D01*
X263268Y372029D01*
X264280Y369587D01*
X265889Y367489D01*
X267987Y365880D01*
X270429Y364868D01*
X271780Y364691D01*
Y373380D01*
D02*
G37*
G36*
X115570Y384777D02*
X112949Y384432D01*
X110507Y383420D01*
X108409Y381811D01*
X106800Y379713D01*
X105788Y377271D01*
X105443Y374650D01*
X105788Y372029D01*
X106800Y369587D01*
X108409Y367489D01*
X110507Y365880D01*
X112949Y364868D01*
X115570Y364523D01*
X118191Y364868D01*
X120633Y365880D01*
X122731Y367489D01*
X124340Y369587D01*
X125352Y372029D01*
X125697Y374650D01*
X125352Y377271D01*
X124340Y379713D01*
X122731Y381811D01*
X120633Y383420D01*
X118191Y384432D01*
X115570Y384777D01*
D02*
G37*
G36*
X199270Y380880D02*
X179190D01*
Y360800D01*
X199270D01*
Y380880D01*
D02*
G37*
G36*
X156090Y369570D02*
X147320D01*
Y360800D01*
X156090D01*
Y369570D01*
D02*
G37*
G36*
X144780D02*
X136010D01*
Y360800D01*
X144780D01*
Y369570D01*
D02*
G37*
G36*
X273050Y359377D02*
X270429Y359032D01*
X267987Y358020D01*
X265889Y356411D01*
X264280Y354313D01*
X263268Y351871D01*
X262923Y349250D01*
X263268Y346629D01*
X264280Y344187D01*
X265889Y342089D01*
X267987Y340480D01*
X270429Y339468D01*
X273050Y339123D01*
X275671Y339468D01*
X278113Y340480D01*
X280211Y342089D01*
X281820Y344187D01*
X282832Y346629D01*
X283177Y349250D01*
X282832Y351871D01*
X281820Y354313D01*
X280211Y356411D01*
X278113Y358020D01*
X275671Y359032D01*
X273050Y359377D01*
D02*
G37*
G36*
X115570D02*
X112949Y359032D01*
X110507Y358020D01*
X108409Y356411D01*
X106800Y354313D01*
X105788Y351871D01*
X105443Y349250D01*
X105788Y346629D01*
X106800Y344187D01*
X108409Y342089D01*
X110507Y340480D01*
X112949Y339468D01*
X115570Y339123D01*
X118191Y339468D01*
X120633Y340480D01*
X122731Y342089D01*
X124340Y344187D01*
X125352Y346629D01*
X125697Y349250D01*
X125352Y351871D01*
X124340Y354313D01*
X122731Y356411D01*
X120633Y358020D01*
X118191Y359032D01*
X115570Y359377D01*
D02*
G37*
G36*
X116840Y333809D02*
Y325120D01*
X125529D01*
X125352Y326471D01*
X124340Y328913D01*
X122731Y331011D01*
X120633Y332620D01*
X118191Y333632D01*
X116840Y333809D01*
D02*
G37*
G36*
X114300D02*
X112949Y333632D01*
X110507Y332620D01*
X108409Y331011D01*
X106800Y328913D01*
X105788Y326471D01*
X105611Y325120D01*
X114300D01*
Y333809D01*
D02*
G37*
G36*
X125529Y322580D02*
X116840D01*
Y313891D01*
X118191Y314068D01*
X120633Y315080D01*
X122731Y316689D01*
X124340Y318787D01*
X125352Y321229D01*
X125529Y322580D01*
D02*
G37*
G36*
X114300D02*
X105611D01*
X105788Y321229D01*
X106800Y318787D01*
X108409Y316689D01*
X110507Y315080D01*
X112949Y314068D01*
X114300Y313891D01*
Y322580D01*
D02*
G37*
G36*
X273050Y333977D02*
X270429Y333632D01*
X267987Y332620D01*
X265889Y331011D01*
X264280Y328913D01*
X263268Y326471D01*
X262923Y323850D01*
X263268Y321229D01*
X263328Y321086D01*
X253061Y310819D01*
X251994Y309223D01*
X251619Y307340D01*
Y267578D01*
X244232Y260191D01*
X199810D01*
X198103Y261500D01*
X195661Y262512D01*
X193040Y262857D01*
X190419Y262512D01*
X187977Y261500D01*
X185879Y259891D01*
X184270Y257793D01*
X183258Y255351D01*
X182913Y252730D01*
X183258Y250109D01*
X184270Y247667D01*
X185879Y245569D01*
X187977Y243960D01*
X188120Y243901D01*
Y196215D01*
X188494Y194332D01*
X189561Y192736D01*
X247810Y134487D01*
Y126840D01*
X243650D01*
X242560Y128260D01*
X240703Y129685D01*
X238541Y130581D01*
X236220Y130887D01*
X233899Y130581D01*
X231737Y129685D01*
X229880Y128260D01*
X228455Y126403D01*
X227559Y124241D01*
X227253Y121920D01*
X227559Y119599D01*
X228455Y117437D01*
X229880Y115580D01*
X231737Y114155D01*
X233899Y113259D01*
X236220Y112953D01*
X238541Y113259D01*
X240703Y114155D01*
X242560Y115580D01*
X243650Y117000D01*
X247810D01*
Y61528D01*
X246539Y61275D01*
X245625Y63483D01*
X244016Y65581D01*
X241918Y67190D01*
X239476Y68202D01*
X236855Y68547D01*
X234234Y68202D01*
X231792Y67190D01*
X229694Y65581D01*
X228085Y63483D01*
X227073Y61041D01*
X226728Y58420D01*
X227073Y55799D01*
X228085Y53357D01*
X229694Y51259D01*
X231792Y49650D01*
X234234Y48638D01*
X236855Y48293D01*
X239476Y48638D01*
X241918Y49650D01*
X244016Y51259D01*
X245625Y53357D01*
X246539Y55565D01*
X247810Y55312D01*
Y50800D01*
X248184Y48917D01*
X249251Y47321D01*
X260470Y36101D01*
Y22980D01*
X280550D01*
Y43060D01*
X267429D01*
X257651Y52838D01*
Y119380D01*
Y136525D01*
X257276Y138408D01*
X256209Y140004D01*
X197960Y198253D01*
Y243901D01*
X198103Y243960D01*
X200201Y245569D01*
X201810Y247667D01*
X202822Y250109D01*
X202853Y250350D01*
X246270D01*
X248153Y250724D01*
X249749Y251791D01*
X260019Y262061D01*
X261086Y263657D01*
X261460Y265540D01*
Y305302D01*
X270286Y314128D01*
X270429Y314068D01*
X273050Y313723D01*
X275671Y314068D01*
X278113Y315080D01*
X280211Y316689D01*
X281820Y318787D01*
X282832Y321229D01*
X283177Y323850D01*
X282832Y326471D01*
X281820Y328913D01*
X280211Y331011D01*
X278113Y332620D01*
X275671Y333632D01*
X273050Y333977D01*
D02*
G37*
G36*
X203080Y338970D02*
X183000D01*
Y318890D01*
X203080D01*
Y324301D01*
X217793D01*
X230428Y311665D01*
X230248Y311231D01*
X229903Y308610D01*
X230248Y305989D01*
X231260Y303547D01*
X232869Y301449D01*
X234967Y299840D01*
X237409Y298828D01*
X240030Y298483D01*
X242651Y298828D01*
X245093Y299840D01*
X247191Y301449D01*
X248800Y303547D01*
X249812Y305989D01*
X250157Y308610D01*
X249812Y311231D01*
X248800Y313673D01*
X247191Y315771D01*
X245093Y317380D01*
X242651Y318392D01*
X240030Y318737D01*
X237409Y318392D01*
X236975Y318212D01*
X222983Y332203D01*
X221481Y333207D01*
X219710Y333559D01*
X219710Y333559D01*
X203080D01*
Y338970D01*
D02*
G37*
G36*
X273050Y308577D02*
X270429Y308232D01*
X267987Y307220D01*
X265889Y305611D01*
X264280Y303513D01*
X263268Y301071D01*
X262923Y298450D01*
X263268Y295829D01*
X264280Y293387D01*
X265889Y291289D01*
X267987Y289680D01*
X270429Y288668D01*
X273050Y288323D01*
X275671Y288668D01*
X278113Y289680D01*
X280211Y291289D01*
X281820Y293387D01*
X282832Y295829D01*
X283177Y298450D01*
X282832Y301071D01*
X281820Y303513D01*
X280211Y305611D01*
X278113Y307220D01*
X275671Y308232D01*
X273050Y308577D01*
D02*
G37*
G36*
X115570D02*
X112949Y308232D01*
X110507Y307220D01*
X108409Y305611D01*
X106800Y303513D01*
X105788Y301071D01*
X105671Y300177D01*
X90707Y285213D01*
X89703Y283711D01*
X89351Y281940D01*
X89351Y281940D01*
Y228149D01*
X52130D01*
X51950Y228583D01*
X50341Y230681D01*
X48243Y232290D01*
X45801Y233302D01*
X43180Y233647D01*
X40559Y233302D01*
X38117Y232290D01*
X36019Y230681D01*
X34410Y228583D01*
X33398Y226141D01*
X33053Y223520D01*
X33398Y220899D01*
X34410Y218457D01*
X36019Y216359D01*
X38117Y214750D01*
X40559Y213738D01*
X43180Y213393D01*
X45801Y213738D01*
X48243Y214750D01*
X50341Y216359D01*
X51950Y218457D01*
X52130Y218891D01*
X91440D01*
X91440Y218891D01*
X93211Y219243D01*
X94713Y220247D01*
X97253Y222787D01*
X97253Y222787D01*
X98257Y224289D01*
X98609Y226060D01*
Y280023D01*
X109239Y290653D01*
X110507Y289680D01*
X112949Y288668D01*
X115570Y288323D01*
X118191Y288668D01*
X120633Y289680D01*
X122731Y291289D01*
X124340Y293387D01*
X125352Y295829D01*
X125697Y298450D01*
X125352Y301071D01*
X124340Y303513D01*
X122731Y305611D01*
X120633Y307220D01*
X118191Y308232D01*
X115570Y308577D01*
D02*
G37*
G36*
X194310Y288089D02*
Y279400D01*
X202999D01*
X202822Y280751D01*
X201810Y283193D01*
X200201Y285291D01*
X198103Y286900D01*
X195661Y287912D01*
X194310Y288089D01*
D02*
G37*
G36*
X191770D02*
X190419Y287912D01*
X187977Y286900D01*
X185879Y285291D01*
X184270Y283193D01*
X183258Y280751D01*
X183081Y279400D01*
X191770D01*
Y288089D01*
D02*
G37*
G36*
X193040Y313657D02*
X190419Y313312D01*
X187977Y312300D01*
X185879Y310691D01*
X184270Y308593D01*
X183258Y306151D01*
X182913Y303530D01*
X183258Y300909D01*
X184270Y298467D01*
X185879Y296369D01*
X187977Y294760D01*
X190419Y293748D01*
X193040Y293403D01*
X195661Y293748D01*
X198103Y294760D01*
X200201Y296369D01*
X201810Y298467D01*
X201990Y298901D01*
X217793D01*
X229990Y286704D01*
Y273170D01*
X250070D01*
Y293250D01*
X236536D01*
X222983Y306803D01*
X221481Y307807D01*
X219710Y308159D01*
X219710Y308159D01*
X201990D01*
X201810Y308593D01*
X200201Y310691D01*
X198103Y312300D01*
X195661Y313312D01*
X193040Y313657D01*
D02*
G37*
G36*
X202999Y276860D02*
X194310D01*
Y268171D01*
X195661Y268348D01*
X198103Y269360D01*
X200201Y270969D01*
X201810Y273067D01*
X202822Y275509D01*
X202999Y276860D01*
D02*
G37*
G36*
X191770D02*
X183081D01*
X183258Y275509D01*
X184270Y273067D01*
X185879Y270969D01*
X187977Y269360D01*
X190419Y268348D01*
X191770Y268171D01*
Y276860D01*
D02*
G37*
G36*
X273050Y283177D02*
X270429Y282832D01*
X267987Y281820D01*
X265889Y280211D01*
X264280Y278113D01*
X263268Y275671D01*
X262923Y273050D01*
X263268Y270429D01*
X264280Y267987D01*
X265889Y265889D01*
X267987Y264280D01*
X270429Y263268D01*
X273050Y262923D01*
X275671Y263268D01*
X278113Y264280D01*
X280211Y265889D01*
X281820Y267987D01*
X282832Y270429D01*
X283177Y273050D01*
X282832Y275671D01*
X281820Y278113D01*
X280211Y280211D01*
X278113Y281820D01*
X275671Y282832D01*
X273050Y283177D01*
D02*
G37*
G36*
X115570D02*
X112949Y282832D01*
X110507Y281820D01*
X108409Y280211D01*
X106800Y278113D01*
X105788Y275671D01*
X105443Y273050D01*
X105788Y270429D01*
X106800Y267987D01*
X108409Y265889D01*
X110507Y264280D01*
X112949Y263268D01*
X115570Y262923D01*
X118191Y263268D01*
X120633Y264280D01*
X122731Y265889D01*
X124340Y267987D01*
X125352Y270429D01*
X125697Y273050D01*
X125352Y275671D01*
X124340Y278113D01*
X122731Y280211D01*
X120633Y281820D01*
X118191Y282832D01*
X115570Y283177D01*
D02*
G37*
G36*
X273050Y257777D02*
X270429Y257432D01*
X267987Y256420D01*
X265889Y254811D01*
X264280Y252713D01*
X263268Y250271D01*
X262923Y247650D01*
X263268Y245029D01*
X264280Y242587D01*
X265889Y240489D01*
X267987Y238880D01*
X270429Y237868D01*
X273050Y237523D01*
X275671Y237868D01*
X278113Y238880D01*
X280211Y240489D01*
X281820Y242587D01*
X282832Y245029D01*
X283177Y247650D01*
X282832Y250271D01*
X281820Y252713D01*
X280211Y254811D01*
X278113Y256420D01*
X275671Y257432D01*
X273050Y257777D01*
D02*
G37*
G36*
X115570D02*
X112949Y257432D01*
X110507Y256420D01*
X108409Y254811D01*
X106800Y252713D01*
X105788Y250271D01*
X105443Y247650D01*
X105788Y245029D01*
X106800Y242587D01*
X108409Y240489D01*
X110507Y238880D01*
X112949Y237868D01*
X115570Y237523D01*
X118191Y237868D01*
X120633Y238880D01*
X122731Y240489D01*
X124340Y242587D01*
X125352Y245029D01*
X125697Y247650D01*
X125352Y250271D01*
X124340Y252713D01*
X122731Y254811D01*
X120633Y256420D01*
X118191Y257432D01*
X115570Y257777D01*
D02*
G37*
G36*
X273050Y232377D02*
X270429Y232032D01*
X267987Y231020D01*
X265889Y229411D01*
X264280Y227313D01*
X263889Y226369D01*
X228896D01*
X228745Y226733D01*
X227320Y228590D01*
X225463Y230015D01*
X223301Y230911D01*
X220980Y231217D01*
X218659Y230911D01*
X216497Y230015D01*
X214640Y228590D01*
X213215Y226733D01*
X212319Y224571D01*
X212013Y222250D01*
X212319Y219929D01*
X213215Y217767D01*
X214640Y215910D01*
X216497Y214485D01*
X218659Y213589D01*
X220980Y213283D01*
X223301Y213589D01*
X225463Y214485D01*
X227320Y215910D01*
X228745Y217767D01*
X228896Y218131D01*
X263889D01*
X264280Y217187D01*
X265889Y215089D01*
X267987Y213480D01*
X270429Y212468D01*
X273050Y212123D01*
X275671Y212468D01*
X278113Y213480D01*
X280211Y215089D01*
X281820Y217187D01*
X282832Y219629D01*
X283177Y222250D01*
X282832Y224871D01*
X281820Y227313D01*
X280211Y229411D01*
X278113Y231020D01*
X275671Y232032D01*
X273050Y232377D01*
D02*
G37*
G36*
X161290Y228510D02*
Y220980D01*
X168820D01*
X168681Y222031D01*
X167785Y224193D01*
X166360Y226050D01*
X164503Y227475D01*
X162341Y228371D01*
X161290Y228510D01*
D02*
G37*
G36*
X158750D02*
X157699Y228371D01*
X155537Y227475D01*
X153680Y226050D01*
X152255Y224193D01*
X151359Y222031D01*
X151221Y220980D01*
X158750D01*
Y228510D01*
D02*
G37*
G36*
X115570Y232377D02*
X112949Y232032D01*
X110507Y231020D01*
X108409Y229411D01*
X106800Y227313D01*
X105788Y224871D01*
X105443Y222250D01*
X105788Y219629D01*
X106800Y217187D01*
X108409Y215089D01*
X110507Y213480D01*
X112949Y212468D01*
X115570Y212123D01*
X118191Y212468D01*
X120633Y213480D01*
X122731Y215089D01*
X124340Y217187D01*
X125352Y219629D01*
X125697Y222250D01*
X125352Y224871D01*
X124340Y227313D01*
X122731Y229411D01*
X120633Y231020D01*
X118191Y232032D01*
X115570Y232377D01*
D02*
G37*
G36*
X168820Y218440D02*
X161290D01*
Y210910D01*
X162341Y211049D01*
X164503Y211945D01*
X166360Y213370D01*
X167785Y215227D01*
X168681Y217389D01*
X168820Y218440D01*
D02*
G37*
G36*
X158750D02*
X151221D01*
X151359Y217389D01*
X152255Y215227D01*
X153680Y213370D01*
X155537Y211945D01*
X157699Y211049D01*
X158750Y210910D01*
Y218440D01*
D02*
G37*
G36*
X273050Y206977D02*
X270429Y206632D01*
X267987Y205620D01*
X265889Y204011D01*
X264280Y201913D01*
X263268Y199471D01*
X262923Y196850D01*
X263268Y194229D01*
X264280Y191787D01*
X265889Y189689D01*
X267987Y188080D01*
X270429Y187068D01*
X273050Y186723D01*
X275671Y187068D01*
X278113Y188080D01*
X280211Y189689D01*
X281820Y191787D01*
X282832Y194229D01*
X283177Y196850D01*
X282832Y199471D01*
X281820Y201913D01*
X280211Y204011D01*
X278113Y205620D01*
X275671Y206632D01*
X273050Y206977D01*
D02*
G37*
G36*
X43180Y208247D02*
X40559Y207902D01*
X38117Y206890D01*
X36019Y205281D01*
X34410Y203183D01*
X33398Y200741D01*
X33053Y198120D01*
X33398Y195499D01*
X34410Y193057D01*
X36019Y190959D01*
X38117Y189350D01*
X40559Y188338D01*
X43180Y187993D01*
X45801Y188338D01*
X48243Y189350D01*
X50341Y190959D01*
X51950Y193057D01*
X52130Y193491D01*
X106094D01*
X106800Y191787D01*
X108409Y189689D01*
X110507Y188080D01*
X112949Y187068D01*
X115570Y186723D01*
X118191Y187068D01*
X120633Y188080D01*
X122731Y189689D01*
X124340Y191787D01*
X125352Y194229D01*
X125697Y196850D01*
X125352Y199471D01*
X124340Y201913D01*
X122731Y204011D01*
X120633Y205620D01*
X118191Y206632D01*
X115570Y206977D01*
X112949Y206632D01*
X110507Y205620D01*
X108409Y204011D01*
X107441Y202749D01*
X52130D01*
X51950Y203183D01*
X50341Y205281D01*
X48243Y206890D01*
X45801Y207902D01*
X43180Y208247D01*
D02*
G37*
G36*
X273050Y181577D02*
X270429Y181232D01*
X267987Y180220D01*
X265889Y178611D01*
X264280Y176513D01*
X263268Y174071D01*
X262923Y171450D01*
X263268Y168829D01*
X264280Y166387D01*
X265889Y164289D01*
X267987Y162680D01*
X270429Y161668D01*
X273050Y161323D01*
X275671Y161668D01*
X278113Y162680D01*
X280211Y164289D01*
X281820Y166387D01*
X282832Y168829D01*
X283177Y171450D01*
X282832Y174071D01*
X281820Y176513D01*
X280211Y178611D01*
X278113Y180220D01*
X275671Y181232D01*
X273050Y181577D01*
D02*
G37*
G36*
X43180Y182847D02*
X40559Y182502D01*
X38117Y181490D01*
X36019Y179881D01*
X34410Y177783D01*
X33398Y175341D01*
X33053Y172720D01*
X33398Y170099D01*
X34410Y167657D01*
X36019Y165559D01*
X38117Y163950D01*
X40559Y162938D01*
X43180Y162593D01*
X45801Y162938D01*
X48243Y163950D01*
X50341Y165559D01*
X51950Y167657D01*
X52130Y168091D01*
X106094D01*
X106800Y166387D01*
X108409Y164289D01*
X110507Y162680D01*
X112949Y161668D01*
X115570Y161323D01*
X118191Y161668D01*
X120633Y162680D01*
X122731Y164289D01*
X124340Y166387D01*
X125352Y168829D01*
X125697Y171450D01*
X125352Y174071D01*
X124340Y176513D01*
X122731Y178611D01*
X120633Y180220D01*
X118191Y181232D01*
X115570Y181577D01*
X112949Y181232D01*
X110507Y180220D01*
X108409Y178611D01*
X107441Y177349D01*
X52130D01*
X51950Y177783D01*
X50341Y179881D01*
X48243Y181490D01*
X45801Y182502D01*
X43180Y182847D01*
D02*
G37*
G36*
X250190Y182067D02*
X247869Y181761D01*
X245707Y180865D01*
X243850Y179440D01*
X242425Y177583D01*
X241529Y175421D01*
X241223Y173100D01*
X241529Y170779D01*
X242425Y168617D01*
X243850Y166760D01*
X245707Y165335D01*
X247869Y164439D01*
X248152Y164402D01*
X263448Y149105D01*
X263268Y148671D01*
X262923Y146050D01*
X263268Y143429D01*
X264280Y140987D01*
X265889Y138889D01*
X267987Y137280D01*
X270429Y136268D01*
X273050Y135923D01*
X275671Y136268D01*
X278113Y137280D01*
X280211Y138889D01*
X281820Y140987D01*
X282832Y143429D01*
X283177Y146050D01*
X282832Y148671D01*
X281820Y151113D01*
X280211Y153211D01*
X278113Y154820D01*
X275671Y155832D01*
X273050Y156177D01*
X270429Y155832D01*
X269995Y155652D01*
X257554Y168093D01*
X257955Y168617D01*
X258851Y170779D01*
X259157Y173100D01*
X258851Y175421D01*
X257955Y177583D01*
X256530Y179440D01*
X254673Y180865D01*
X252511Y181761D01*
X250190Y182067D01*
D02*
G37*
G36*
X43180Y157447D02*
X40559Y157102D01*
X38117Y156090D01*
X36019Y154481D01*
X34410Y152383D01*
X33398Y149941D01*
X33053Y147320D01*
X33398Y144699D01*
X34410Y142257D01*
X36019Y140159D01*
X38117Y138550D01*
X40559Y137538D01*
X43180Y137193D01*
X45801Y137538D01*
X48243Y138550D01*
X50341Y140159D01*
X51950Y142257D01*
X52130Y142691D01*
X106094D01*
X106800Y140987D01*
X108409Y138889D01*
X110507Y137280D01*
X112949Y136268D01*
X115570Y135923D01*
X118191Y136268D01*
X120633Y137280D01*
X122731Y138889D01*
X124340Y140987D01*
X125352Y143429D01*
X125697Y146050D01*
X125352Y148671D01*
X124340Y151113D01*
X122731Y153211D01*
X120633Y154820D01*
X118191Y155832D01*
X115570Y156177D01*
X112949Y155832D01*
X110507Y154820D01*
X108409Y153211D01*
X107441Y151949D01*
X52130D01*
X51950Y152383D01*
X50341Y154481D01*
X48243Y156090D01*
X45801Y157102D01*
X43180Y157447D01*
D02*
G37*
G36*
X283090Y130690D02*
X263010D01*
Y110610D01*
X283090D01*
Y130690D01*
D02*
G37*
G36*
X53220Y131960D02*
X33140D01*
Y111880D01*
X53220D01*
Y117291D01*
X106094D01*
X106800Y115587D01*
X108409Y113489D01*
X110507Y111880D01*
X112949Y110868D01*
X115570Y110523D01*
X118191Y110868D01*
X120633Y111880D01*
X122731Y113489D01*
X124340Y115587D01*
X125352Y118029D01*
X125697Y120650D01*
X125352Y123271D01*
X124340Y125713D01*
X122731Y127811D01*
X120633Y129420D01*
X118191Y130432D01*
X115570Y130777D01*
X112949Y130432D01*
X110507Y129420D01*
X108409Y127811D01*
X107441Y126549D01*
X53220D01*
Y131960D01*
D02*
G37*
G36*
X270510Y68547D02*
X267889Y68202D01*
X265447Y67190D01*
X263349Y65581D01*
X261740Y63483D01*
X260728Y61041D01*
X260383Y58420D01*
X260728Y55799D01*
X261740Y53357D01*
X263349Y51259D01*
X265447Y49650D01*
X267889Y48638D01*
X270510Y48293D01*
X273131Y48638D01*
X275573Y49650D01*
X277671Y51259D01*
X279280Y53357D01*
X280292Y55799D01*
X280637Y58420D01*
X280292Y61041D01*
X279280Y63483D01*
X277671Y65581D01*
X275573Y67190D01*
X273131Y68202D01*
X270510Y68547D01*
D02*
G37*
G36*
X207010Y132157D02*
X204689Y131851D01*
X202527Y130955D01*
X200670Y129530D01*
X199245Y127673D01*
X198349Y125511D01*
X198043Y123190D01*
X198349Y120869D01*
X199245Y118707D01*
X200670Y116850D01*
X202381Y115536D01*
Y68439D01*
X200579Y68202D01*
X198137Y67190D01*
X196039Y65581D01*
X194430Y63483D01*
X193418Y61041D01*
X193073Y58420D01*
X193418Y55799D01*
X194430Y53357D01*
X196039Y51259D01*
X198137Y49650D01*
X200579Y48638D01*
X203200Y48293D01*
X205821Y48638D01*
X208263Y49650D01*
X210361Y51259D01*
X211970Y53357D01*
X212982Y55799D01*
X213327Y58420D01*
X212982Y61041D01*
X211970Y63483D01*
X211639Y63915D01*
Y115536D01*
X213350Y116850D01*
X214775Y118707D01*
X215671Y120869D01*
X215977Y123190D01*
X215671Y125511D01*
X214775Y127673D01*
X213350Y129530D01*
X211493Y130955D01*
X209331Y131851D01*
X207010Y132157D01*
D02*
G37*
G36*
X185420D02*
X183099Y131851D01*
X180937Y130955D01*
X179080Y129530D01*
X177655Y127673D01*
X176759Y125511D01*
X176453Y123190D01*
X176759Y120869D01*
X177655Y118707D01*
X179080Y116850D01*
X180791Y115536D01*
Y88277D01*
X168177Y75663D01*
X167173Y74161D01*
X166821Y72390D01*
X166821Y72390D01*
Y68159D01*
X164482Y67190D01*
X162384Y65581D01*
X160775Y63483D01*
X159763Y61041D01*
X159418Y58420D01*
X159763Y55799D01*
X160775Y53357D01*
X162384Y51259D01*
X164482Y49650D01*
X166924Y48638D01*
X169545Y48293D01*
X172166Y48638D01*
X174608Y49650D01*
X176706Y51259D01*
X178315Y53357D01*
X179327Y55799D01*
X179672Y58420D01*
X179327Y61041D01*
X178315Y63483D01*
X176706Y65581D01*
X176079Y66062D01*
Y70473D01*
X188693Y83087D01*
X188693Y83087D01*
X189697Y84589D01*
X190049Y86360D01*
Y115536D01*
X191760Y116850D01*
X193185Y118707D01*
X194081Y120869D01*
X194387Y123190D01*
X194081Y125511D01*
X193185Y127673D01*
X191760Y129530D01*
X189903Y130955D01*
X187741Y131851D01*
X185420Y132157D01*
D02*
G37*
G36*
X162560D02*
X160239Y131851D01*
X158077Y130955D01*
X156220Y129530D01*
X154795Y127673D01*
X153899Y125511D01*
X153593Y123190D01*
X153899Y120869D01*
X154795Y118707D01*
X156220Y116850D01*
X157931Y115536D01*
Y92087D01*
X134163Y68319D01*
X133269Y68202D01*
X130827Y67190D01*
X128729Y65581D01*
X127120Y63483D01*
X126108Y61041D01*
X125763Y58420D01*
X126108Y55799D01*
X127120Y53357D01*
X128729Y51259D01*
X130827Y49650D01*
X133269Y48638D01*
X135890Y48293D01*
X138511Y48638D01*
X140953Y49650D01*
X143051Y51259D01*
X144660Y53357D01*
X145672Y55799D01*
X146017Y58420D01*
X145672Y61041D01*
X144660Y63483D01*
X143687Y64751D01*
X165833Y86897D01*
X165833Y86897D01*
X166837Y88399D01*
X167189Y90170D01*
Y115536D01*
X168900Y116850D01*
X170325Y118707D01*
X171221Y120869D01*
X171527Y123190D01*
X171221Y125511D01*
X170325Y127673D01*
X168900Y129530D01*
X167043Y130955D01*
X164881Y131851D01*
X162560Y132157D01*
D02*
G37*
G36*
X31750Y55069D02*
Y36830D01*
X49989D01*
X49737Y39390D01*
X48620Y43074D01*
X46806Y46468D01*
X44364Y49444D01*
X41388Y51885D01*
X37994Y53700D01*
X34311Y54817D01*
X31750Y55069D01*
D02*
G37*
G36*
X29210D02*
X26649Y54817D01*
X22966Y53700D01*
X19572Y51885D01*
X16596Y49444D01*
X14154Y46468D01*
X12340Y43074D01*
X11223Y39390D01*
X10971Y36830D01*
X29210D01*
Y55069D01*
D02*
G37*
G36*
X246895Y43060D02*
X226815D01*
Y22980D01*
X246895D01*
Y43060D01*
D02*
G37*
G36*
X213240D02*
X193160D01*
Y22980D01*
X213240D01*
Y43060D01*
D02*
G37*
G36*
X179585D02*
X159505D01*
Y22980D01*
X179585D01*
Y43060D01*
D02*
G37*
G36*
X145930D02*
X125850D01*
Y22980D01*
X145930D01*
Y43060D01*
D02*
G37*
G36*
X49989Y34290D02*
X31750D01*
Y16051D01*
X34311Y16303D01*
X37994Y17420D01*
X41388Y19234D01*
X44364Y21676D01*
X46806Y24652D01*
X48620Y28046D01*
X49737Y31730D01*
X49989Y34290D01*
D02*
G37*
G36*
X29210D02*
X10971D01*
X11223Y31730D01*
X12340Y28046D01*
X14154Y24652D01*
X16596Y21676D01*
X19572Y19234D01*
X22966Y17420D01*
X26649Y16303D01*
X29210Y16051D01*
Y34290D01*
D02*
G37*
%LPD*%
D31*
X273050Y120650D02*
D03*
X189230Y370840D02*
D03*
X146050D02*
D03*
X115570Y400050D02*
D03*
X43180Y121920D02*
D03*
X240030Y283210D02*
D03*
X193040Y328930D02*
D03*
X169545Y33020D02*
D03*
X203200D02*
D03*
X236855D02*
D03*
X135890D02*
D03*
X270510D02*
D03*
D39*
X246760Y173100D02*
X250190D01*
X246380Y172720D02*
X246760Y173100D01*
X250190Y121920D02*
X252730Y119380D01*
X246380Y172720D02*
X273050Y146050D01*
X219710Y303530D02*
X240030Y283210D01*
X171450Y58420D02*
Y72390D01*
X207010Y59690D02*
Y123190D01*
X205740Y58420D02*
X207010Y59690D01*
X185420Y86360D02*
Y123190D01*
X171450Y72390D02*
X185420Y86360D01*
X162560Y90170D02*
Y123190D01*
X135890Y63500D02*
X162560Y90170D01*
X193040Y303530D02*
X219710D01*
Y328930D02*
X240030Y308610D01*
X193040Y328930D02*
X219710D01*
X93980Y281940D02*
X111760Y299720D01*
X93980Y226060D02*
Y281940D01*
X91440Y223520D02*
X93980Y226060D01*
X43180Y223520D02*
X91440D01*
X43180Y121920D02*
X111760D01*
X43180Y147320D02*
X111760D01*
X43180Y172720D02*
X111760D01*
X43180Y198120D02*
X111760D01*
D40*
X220980Y222250D02*
X273050D01*
X193040Y252730D02*
X195580Y255270D01*
X135890Y58420D02*
Y63500D01*
D43*
X273050Y400050D02*
D03*
Y374650D02*
D03*
Y349250D02*
D03*
Y323850D02*
D03*
Y298450D02*
D03*
Y273050D02*
D03*
Y247650D02*
D03*
Y222250D02*
D03*
Y196850D02*
D03*
Y171450D02*
D03*
Y146050D02*
D03*
X189230Y396240D02*
D03*
X146050D02*
D03*
X115570Y120650D02*
D03*
Y146050D02*
D03*
Y171450D02*
D03*
Y196850D02*
D03*
Y222250D02*
D03*
Y247650D02*
D03*
Y273050D02*
D03*
Y298450D02*
D03*
Y323850D02*
D03*
Y349250D02*
D03*
Y374650D02*
D03*
X43180Y223520D02*
D03*
Y198120D02*
D03*
Y172720D02*
D03*
Y147320D02*
D03*
X240030Y308610D02*
D03*
X193040Y252730D02*
D03*
Y278130D02*
D03*
Y303530D02*
D03*
X169545Y58420D02*
D03*
X203200D02*
D03*
X236855D02*
D03*
X135890D02*
D03*
X270510D02*
D03*
D44*
X25400Y391280D02*
D03*
X30480Y35560D02*
D03*
D45*
X250190Y173100D02*
D03*
X236220Y121920D02*
D03*
X220980Y222250D02*
D03*
X162560Y123190D02*
D03*
X207010D02*
D03*
X185420D02*
D03*
X160020Y219710D02*
D03*
D46*
X256540Y307340D02*
X273050Y323850D01*
X256540Y265540D02*
Y307340D01*
X246270Y255270D02*
X256540Y265540D01*
X252730Y119380D02*
Y136525D01*
Y50800D02*
Y119380D01*
X193040Y196215D02*
X252730Y136525D01*
Y50800D02*
X270510Y33020D01*
X236220Y121920D02*
X250190D01*
X193040Y196215D02*
Y252730D01*
X195580Y255270D02*
X246270D01*
M02*
