M48
;Layer_Color=9474304
;FILE_FORMAT=4:4
METRIC,LZ
;TYPE=PLATED
T1F00S00C0.7112
T2F00S00C0.9000
T3F00S00C3.2000
%
T01
X0016256Y0012319
X0018542
X0020701
X0023622Y0012192
X0025019Y001731
X0022098Y0022225
X0016002Y0021971
T02
X0004318Y0012192
Y0014732
Y0017272
Y0019812
Y0022352
X0011557Y0022225
Y0019685
Y0017145
Y0014605
Y0012065
X0013589Y0005842
Y0003302
X00169545
Y0005842
X002032
Y0003302
X00236855
Y0005842
X0027051
Y0003302
X0027305Y0012065
Y0014605
Y0017145
Y0019685
Y0022225
Y0024765
Y0027305
Y0029845
Y0032385
Y0034925
X0024003Y0030861
Y0028321
X0019304Y0027813
Y0025273
Y0030353
Y0032893
X0011557Y0032385
Y0029845
Y0027305
Y0024765
Y0034925
Y0037465
Y0040005
X0014605Y0039624
Y0037084
X0018923
Y0039624
X0027305Y0040005
Y0037465
T03
X0003048Y0003556
X000254Y0039128
M30
