G04*
G04 #@! TF.GenerationSoftware,Altium Limited,Altium Designer,18.1.7 (191)*
G04*
G04 Layer_Physical_Order=1*
G04 Layer_Color=255*
%FSLAX44Y44*%
%MOMM*%
G71*
G01*
G75*
%ADD13C,0.2540*%
%ADD28O,0.6500X1.6500*%
%ADD29R,1.5000X1.5000*%
%ADD30R,1.0500X1.4000*%
%ADD31R,1.5000X1.5000*%
%ADD32R,1.4000X1.0500*%
%ADD33R,1.3500X1.5500*%
%ADD34R,1.2500X1.5000*%
%ADD35R,1.5000X1.2500*%
%ADD36R,1.5500X1.3500*%
%ADD37R,0.8500X1.3000*%
%ADD38R,1.3000X0.8500*%
%ADD39C,0.4000*%
%ADD40C,0.3000*%
%ADD41C,0.5080*%
%ADD42C,0.3810*%
%ADD43C,1.5000*%
%ADD44C,3.4000*%
%ADD45C,1.2700*%
G36*
X289517Y414610D02*
X290901Y414037D01*
X292146Y413205D01*
X293205Y412146D01*
X294037Y410901D01*
X294610Y409517D01*
X294902Y408049D01*
Y407300D01*
Y201266D01*
X293729Y200781D01*
X281755Y212755D01*
X280418Y213648D01*
X280064Y214977D01*
X280211Y215089D01*
X281820Y217187D01*
X282832Y219629D01*
X283177Y222250D01*
X282832Y224871D01*
X281820Y227313D01*
X280211Y229411D01*
X278113Y231020D01*
X275671Y232032D01*
X273050Y232377D01*
X270429Y232032D01*
X267987Y231020D01*
X265889Y229411D01*
X264280Y227313D01*
X263268Y224871D01*
X262923Y222250D01*
X263268Y219629D01*
X264280Y217187D01*
X265688Y215352D01*
X265287Y214082D01*
X239579D01*
Y241300D01*
X239227Y243071D01*
X238810Y243695D01*
Y250340D01*
X225230D01*
Y232260D01*
X230321D01*
Y226248D01*
X229051Y225995D01*
X228745Y226733D01*
X227320Y228590D01*
X225463Y230015D01*
X223301Y230911D01*
X222025Y231079D01*
X221810Y232260D01*
X221810Y232388D01*
Y240030D01*
X216290D01*
Y232260D01*
X219175D01*
X219258Y230990D01*
X218659Y230911D01*
X216497Y230015D01*
X214640Y228590D01*
X213215Y226733D01*
X212319Y224571D01*
X212013Y222250D01*
X212295Y220111D01*
X206277Y214093D01*
X205273Y212591D01*
X204921Y210820D01*
X204921Y210820D01*
Y207884D01*
X204096Y206649D01*
X203847Y205400D01*
X202553D01*
X202304Y206649D01*
X201024Y208564D01*
X199109Y209844D01*
X196850Y210293D01*
X194591Y209844D01*
X192676Y208564D01*
X191396Y206649D01*
X191147Y205400D01*
X189853D01*
X189604Y206649D01*
X188324Y208564D01*
X186409Y209844D01*
X184150Y210293D01*
X181891Y209844D01*
X179976Y208564D01*
X178696Y206649D01*
X178447Y205400D01*
X177153D01*
X176904Y206649D01*
X175624Y208564D01*
X173709Y209844D01*
X172720Y210041D01*
Y199390D01*
X170180D01*
Y210041D01*
X169191Y209844D01*
X167276Y208564D01*
X165996Y206649D01*
X165747Y205400D01*
X164453D01*
X164204Y206649D01*
X163379Y207884D01*
Y211479D01*
X164503Y211945D01*
X166360Y213370D01*
X167785Y215227D01*
X168681Y217389D01*
X168820Y218440D01*
X151221D01*
X151359Y217389D01*
X152255Y215227D01*
X153680Y213370D01*
X154121Y213031D01*
Y207884D01*
X153296Y206649D01*
X153047Y205400D01*
X151753D01*
X151504Y206649D01*
X150224Y208564D01*
X148309Y209844D01*
X147320Y210041D01*
Y199390D01*
Y188739D01*
X148309Y188936D01*
X150224Y190216D01*
X151504Y192131D01*
X151753Y193380D01*
X153047D01*
X153296Y192131D01*
X154576Y190216D01*
X156491Y188936D01*
X157480Y188739D01*
Y199390D01*
X160020D01*
Y188739D01*
X161009Y188936D01*
X162924Y190216D01*
X164204Y192131D01*
X164453Y193380D01*
X165747D01*
X165996Y192131D01*
X167276Y190216D01*
X167814Y189856D01*
X167546Y188508D01*
X167139Y188427D01*
X165637Y187423D01*
X165637Y187423D01*
X142777Y164563D01*
X141773Y163061D01*
X141421Y161290D01*
X141421Y161290D01*
Y151384D01*
X140596Y150149D01*
X140147Y147890D01*
Y137890D01*
X140596Y135631D01*
X141876Y133716D01*
X143791Y132436D01*
X146050Y131987D01*
X148309Y132436D01*
X150224Y133716D01*
X151504Y135631D01*
X151753Y136880D01*
X153047D01*
X153296Y135631D01*
X154576Y133716D01*
X156491Y132436D01*
X157735Y132189D01*
X157954Y131397D01*
X157942Y130852D01*
X156220Y129530D01*
X154795Y127673D01*
X153899Y125511D01*
X153593Y123190D01*
X153899Y120869D01*
X154795Y118707D01*
X156220Y116850D01*
X157062Y116203D01*
X157158Y114583D01*
X156926Y114350D01*
X153520D01*
Y100770D01*
X171600D01*
Y114350D01*
X168194D01*
X167962Y114583D01*
X168058Y116203D01*
X168900Y116850D01*
X170325Y118707D01*
X170387Y118855D01*
X170681Y118913D01*
X172183Y119917D01*
X175205Y122939D01*
X176546Y122484D01*
X176759Y120869D01*
X177655Y118707D01*
X179080Y116850D01*
X179922Y116203D01*
X180018Y114583D01*
X179786Y114350D01*
X176380D01*
Y100770D01*
X194460D01*
Y114350D01*
X191054D01*
X190822Y114583D01*
X190918Y116203D01*
X191760Y116850D01*
X193185Y118707D01*
X194081Y120869D01*
X194387Y123190D01*
X194081Y125511D01*
X193185Y127673D01*
X192948Y127982D01*
X196978Y132012D01*
X199109Y132436D01*
X201024Y133716D01*
X202304Y135631D01*
X202553Y136880D01*
X203847D01*
X204096Y135631D01*
X204921Y134396D01*
Y131882D01*
X204689Y131851D01*
X202527Y130955D01*
X200670Y129530D01*
X199245Y127673D01*
X198349Y125511D01*
X198043Y123190D01*
X198349Y120869D01*
X199245Y118707D01*
X200670Y116850D01*
X201512Y116203D01*
X201608Y114583D01*
X201376Y114350D01*
X197970D01*
Y100770D01*
X216050D01*
Y114350D01*
X212644D01*
X212412Y114583D01*
X212508Y116203D01*
X213350Y116850D01*
X214775Y118707D01*
X215671Y120869D01*
X215977Y123190D01*
X215671Y125511D01*
X214775Y127673D01*
X214179Y128451D01*
Y134396D01*
X215004Y135631D01*
X215253Y136880D01*
X216547D01*
X216796Y135631D01*
X217621Y134396D01*
Y113910D01*
X217621Y113910D01*
X217973Y112139D01*
X218977Y110637D01*
X219560Y110054D01*
Y100770D01*
X233044D01*
X235290Y98523D01*
X234804Y97350D01*
X229870D01*
Y91830D01*
X237640D01*
Y93326D01*
X238910Y93996D01*
X239211Y93790D01*
Y69200D01*
X238256Y68362D01*
X236855Y68547D01*
X234234Y68202D01*
X231792Y67190D01*
X229694Y65581D01*
X228085Y63483D01*
X227073Y61041D01*
X226728Y58420D01*
X227073Y55799D01*
X228085Y53357D01*
X229694Y51259D01*
X231792Y49650D01*
X234234Y48638D01*
X236855Y48293D01*
X239476Y48638D01*
X241918Y49650D01*
X244016Y51259D01*
X245625Y53357D01*
X246637Y55799D01*
X246982Y58420D01*
X246787Y59900D01*
X247113Y60227D01*
X247113Y60227D01*
X248117Y61729D01*
X248469Y63500D01*
X248469Y63500D01*
Y96520D01*
X248117Y98291D01*
X247113Y99793D01*
X247113Y99793D01*
X237640Y109266D01*
Y113140D01*
X238541Y113259D01*
X240703Y114155D01*
X242560Y115580D01*
X243985Y117437D01*
X244881Y119599D01*
X245187Y121920D01*
X244881Y124241D01*
X243985Y126403D01*
X242560Y128260D01*
X240849Y129574D01*
Y137867D01*
X240853Y137890D01*
Y147890D01*
X240404Y150149D01*
X239124Y152064D01*
X237209Y153344D01*
X234950Y153793D01*
X232691Y153344D01*
X230776Y152064D01*
X229496Y150149D01*
X229247Y148900D01*
X227953D01*
X227704Y150149D01*
X226424Y152064D01*
X224509Y153344D01*
X222250Y153793D01*
X219991Y153344D01*
X218076Y152064D01*
X216796Y150149D01*
X216547Y148900D01*
X215253D01*
X215004Y150149D01*
X213724Y152064D01*
X211809Y153344D01*
X209550Y153793D01*
X207291Y153344D01*
X205376Y152064D01*
X204096Y150149D01*
X203847Y148900D01*
X202553D01*
X202304Y150149D01*
X201024Y152064D01*
X199109Y153344D01*
X196850Y153793D01*
X194591Y153344D01*
X192676Y152064D01*
X191396Y150149D01*
X191147Y148900D01*
X189853D01*
X189604Y150149D01*
X188324Y152064D01*
X186409Y153344D01*
X184150Y153793D01*
X183620Y153688D01*
X182995Y154859D01*
X185717Y157581D01*
X263810D01*
X263810Y157581D01*
X265581Y157933D01*
X267083Y158937D01*
X269995Y161848D01*
X270429Y161668D01*
X273050Y161323D01*
X275671Y161668D01*
X278113Y162680D01*
X279191Y163507D01*
X280461Y162881D01*
Y154619D01*
X279191Y153993D01*
X278113Y154820D01*
X275671Y155832D01*
X273050Y156177D01*
X270429Y155832D01*
X267987Y154820D01*
X265889Y153211D01*
X264280Y151113D01*
X263268Y148671D01*
X262923Y146050D01*
X263268Y143429D01*
X264280Y140987D01*
X265889Y138889D01*
X267987Y137280D01*
X270429Y136268D01*
X273050Y135923D01*
X275671Y136268D01*
X278113Y137280D01*
X279191Y138107D01*
X280461Y137481D01*
Y134607D01*
X276544Y130690D01*
X263010D01*
Y110610D01*
X283090D01*
Y124144D01*
X287568Y128622D01*
X288838Y128096D01*
Y104747D01*
X267305Y83215D01*
X266323Y81744D01*
X265978Y80010D01*
Y67410D01*
X265447Y67190D01*
X263349Y65581D01*
X261740Y63483D01*
X260728Y61041D01*
X260383Y58420D01*
X260728Y55799D01*
X261740Y53357D01*
X263349Y51259D01*
X265447Y49650D01*
X267889Y48638D01*
X270510Y48293D01*
X273131Y48638D01*
X275573Y49650D01*
X277671Y51259D01*
X279280Y53357D01*
X280292Y55799D01*
X280637Y58420D01*
X280292Y61041D01*
X279280Y63483D01*
X277671Y65581D01*
X275573Y67190D01*
X275042Y67410D01*
Y78133D01*
X293729Y96819D01*
X294902Y96334D01*
Y12700D01*
Y11951D01*
X294610Y10482D01*
X294037Y9099D01*
X293205Y7854D01*
X292146Y6795D01*
X290901Y5963D01*
X289517Y5390D01*
X288049Y5098D01*
X11951D01*
X10482Y5390D01*
X9099Y5963D01*
X7854Y6795D01*
X6795Y7854D01*
X5963Y9099D01*
X5390Y10482D01*
X5098Y11951D01*
Y12700D01*
Y151797D01*
X6271Y152282D01*
X33140Y125414D01*
Y111880D01*
X53220D01*
Y131960D01*
X39686D01*
X12559Y159087D01*
Y169735D01*
X13732Y170221D01*
X33578Y150375D01*
X33398Y149941D01*
X33053Y147320D01*
X33398Y144699D01*
X34410Y142257D01*
X36019Y140159D01*
X38117Y138550D01*
X40559Y137538D01*
X43180Y137193D01*
X45801Y137538D01*
X48243Y138550D01*
X50341Y140159D01*
X51950Y142257D01*
X52962Y144699D01*
X53307Y147320D01*
X52962Y149941D01*
X51950Y152383D01*
X50341Y154481D01*
X48243Y156090D01*
X45801Y157102D01*
X43180Y157447D01*
X40559Y157102D01*
X40125Y156922D01*
X19869Y177177D01*
Y187825D01*
X21042Y188311D01*
X33578Y175775D01*
X33398Y175341D01*
X33053Y172720D01*
X33398Y170099D01*
X34410Y167657D01*
X36019Y165559D01*
X38117Y163950D01*
X40559Y162938D01*
X43180Y162593D01*
X45801Y162938D01*
X48243Y163950D01*
X50341Y165559D01*
X51950Y167657D01*
X52962Y170099D01*
X53307Y172720D01*
X52962Y175341D01*
X51950Y177783D01*
X50341Y179881D01*
X48243Y181490D01*
X45801Y182502D01*
X43180Y182847D01*
X40559Y182502D01*
X40125Y182322D01*
X27489Y194957D01*
Y205605D01*
X28662Y206091D01*
X33578Y201175D01*
X33398Y200741D01*
X33053Y198120D01*
X33398Y195499D01*
X34410Y193057D01*
X36019Y190959D01*
X38117Y189350D01*
X40559Y188338D01*
X43180Y187993D01*
X45801Y188338D01*
X48243Y189350D01*
X50341Y190959D01*
X51950Y193057D01*
X52962Y195499D01*
X53307Y198120D01*
X52962Y200741D01*
X51950Y203183D01*
X50341Y205281D01*
X48243Y206890D01*
X45801Y207902D01*
X43180Y208247D01*
X40559Y207902D01*
X40125Y207722D01*
X35109Y212737D01*
Y215590D01*
X36379Y216084D01*
X38117Y214750D01*
X40559Y213738D01*
X43180Y213393D01*
X45801Y213738D01*
X48243Y214750D01*
X50341Y216359D01*
X51950Y218457D01*
X52962Y220899D01*
X53307Y223520D01*
X52962Y226141D01*
X51950Y228583D01*
X50341Y230681D01*
X48243Y232290D01*
X45801Y233302D01*
X43180Y233647D01*
X40559Y233302D01*
X38117Y232290D01*
X36379Y230956D01*
X35109Y231450D01*
Y257003D01*
X51026Y272920D01*
X64060D01*
Y293500D01*
X45480D01*
Y280466D01*
X28662Y263649D01*
X27489Y264135D01*
Y290183D01*
X44370Y307064D01*
X45640Y306538D01*
Y302130D01*
X64220D01*
Y322710D01*
X45640D01*
Y317049D01*
X43180D01*
X43180Y317049D01*
X41409Y316697D01*
X39907Y315693D01*
X39907Y315693D01*
X21042Y296829D01*
X19869Y297315D01*
Y309233D01*
X44467Y333830D01*
X45640Y333344D01*
Y332610D01*
X64220D01*
Y353190D01*
X45640D01*
Y347260D01*
X45219Y347177D01*
X43717Y346173D01*
X13732Y316189D01*
X12559Y316675D01*
Y324463D01*
X51186Y363090D01*
X64220D01*
Y383670D01*
X45640D01*
Y370636D01*
X6271Y331268D01*
X5098Y331754D01*
Y386519D01*
X6368Y386707D01*
X7260Y383766D01*
X9075Y380372D01*
X11516Y377396D01*
X14492Y374955D01*
X17886Y373140D01*
X21569Y372023D01*
X24130Y371771D01*
Y391280D01*
Y410789D01*
X21569Y410537D01*
X17886Y409420D01*
X14492Y407606D01*
X11516Y405164D01*
X9075Y402188D01*
X7260Y398794D01*
X6368Y395853D01*
X5098Y396041D01*
Y408049D01*
X5390Y409517D01*
X5963Y410901D01*
X6795Y412146D01*
X7854Y413205D01*
X9099Y414037D01*
X10483Y414610D01*
X11951Y414902D01*
X288049D01*
X289517Y414610D01*
D02*
G37*
G36*
X265688Y203748D02*
X264280Y201913D01*
X263268Y199471D01*
X262923Y196850D01*
X263268Y194229D01*
X264280Y191787D01*
X265613Y190049D01*
X265120Y188779D01*
X239260D01*
X238875Y190049D01*
X239124Y190216D01*
X240404Y192131D01*
X240853Y194390D01*
Y204390D01*
X241369Y205018D01*
X265287D01*
X265688Y203748D01*
D02*
G37*
%LPC*%
G36*
X273050Y410177D02*
X270429Y409832D01*
X267987Y408820D01*
X265889Y407211D01*
X264369Y405229D01*
X239858D01*
Y410090D01*
X219778D01*
Y405229D01*
X193763D01*
X191851Y406022D01*
X189230Y406367D01*
X186609Y406022D01*
X184167Y405010D01*
X182069Y403401D01*
X180460Y401303D01*
X179448Y398861D01*
X179103Y396240D01*
X179448Y393619D01*
X180460Y391177D01*
X182069Y389079D01*
X184167Y387470D01*
X186609Y386458D01*
X189230Y386113D01*
X191851Y386458D01*
X194293Y387470D01*
X196391Y389079D01*
X198000Y391177D01*
X199012Y393619D01*
X199176Y394870D01*
X219778D01*
Y390010D01*
X239858D01*
Y394870D01*
X264369D01*
X265889Y392889D01*
X267987Y391280D01*
X270429Y390268D01*
X273050Y389923D01*
X275671Y390268D01*
X278113Y391280D01*
X280211Y392889D01*
X281820Y394987D01*
X282832Y397429D01*
X283177Y400050D01*
X282832Y402671D01*
X281820Y405113D01*
X280211Y407211D01*
X278113Y408820D01*
X275671Y409832D01*
X273050Y410177D01*
D02*
G37*
G36*
X26670Y410789D02*
Y392550D01*
X44909D01*
X44657Y395111D01*
X43540Y398794D01*
X41726Y402188D01*
X39284Y405164D01*
X36308Y407606D01*
X32914Y409420D01*
X29230Y410537D01*
X26670Y410789D01*
D02*
G37*
G36*
X125610Y410090D02*
X105530D01*
Y390010D01*
X125610D01*
Y410090D01*
D02*
G37*
G36*
X274320Y384609D02*
Y375920D01*
X283009D01*
X282832Y377271D01*
X281820Y379713D01*
X280211Y381811D01*
X278113Y383420D01*
X275671Y384432D01*
X274320Y384609D01*
D02*
G37*
G36*
X271780D02*
X270429Y384432D01*
X267987Y383420D01*
X265889Y381811D01*
X264280Y379713D01*
X263268Y377271D01*
X263091Y375920D01*
X271780D01*
Y384609D01*
D02*
G37*
G36*
X84220Y383670D02*
X76200D01*
Y374650D01*
X84220D01*
Y383670D01*
D02*
G37*
G36*
X73660D02*
X65640D01*
Y374650D01*
X73660D01*
Y383670D01*
D02*
G37*
G36*
X156090Y380880D02*
X147320D01*
Y372110D01*
X156090D01*
Y380880D01*
D02*
G37*
G36*
X144780D02*
X136010D01*
Y372110D01*
X144780D01*
Y380880D01*
D02*
G37*
G36*
X44909Y390010D02*
X26670D01*
Y371771D01*
X29230Y372023D01*
X32914Y373140D01*
X36308Y374955D01*
X39284Y377396D01*
X41726Y380372D01*
X43540Y383766D01*
X44657Y387450D01*
X44909Y390010D01*
D02*
G37*
G36*
X283009Y373380D02*
X274320D01*
Y364691D01*
X275671Y364868D01*
X278113Y365880D01*
X280211Y367489D01*
X281820Y369587D01*
X282832Y372029D01*
X283009Y373380D01*
D02*
G37*
G36*
X271780D02*
X263091D01*
X263268Y372029D01*
X264280Y369587D01*
X265889Y367489D01*
X267987Y365880D01*
X270429Y364868D01*
X271780Y364691D01*
Y373380D01*
D02*
G37*
G36*
X115570Y384777D02*
X112949Y384432D01*
X110507Y383420D01*
X108409Y381811D01*
X106800Y379713D01*
X105788Y377271D01*
X105443Y374650D01*
X105788Y372029D01*
X106800Y369587D01*
X108409Y367489D01*
X110507Y365880D01*
X112949Y364868D01*
X115570Y364523D01*
X118191Y364868D01*
X120633Y365880D01*
X122731Y367489D01*
X124340Y369587D01*
X125352Y372029D01*
X125697Y374650D01*
X125352Y377271D01*
X124340Y379713D01*
X122731Y381811D01*
X120633Y383420D01*
X118191Y384432D01*
X115570Y384777D01*
D02*
G37*
G36*
X84220Y372110D02*
X76200D01*
Y363090D01*
X84220D01*
Y372110D01*
D02*
G37*
G36*
X73660D02*
X65640D01*
Y363090D01*
X73660D01*
Y372110D01*
D02*
G37*
G36*
X146050Y406367D02*
X143429Y406022D01*
X140987Y405010D01*
X138889Y403401D01*
X137280Y401303D01*
X136268Y398861D01*
X135923Y396240D01*
X136268Y393619D01*
X137280Y391177D01*
X138889Y389079D01*
X140987Y387470D01*
X143429Y386458D01*
X146050Y386113D01*
X148671Y386458D01*
X151113Y387470D01*
X153211Y389079D01*
X153642Y389641D01*
X154909Y389725D01*
X177067Y367567D01*
X177067Y367567D01*
X178569Y366563D01*
X179190Y366440D01*
Y360800D01*
X199270D01*
Y380880D01*
X179190D01*
Y380196D01*
X178017Y379710D01*
X158213Y399513D01*
X156711Y400517D01*
X155005Y400856D01*
X154820Y401303D01*
X153211Y403401D01*
X151113Y405010D01*
X148671Y406022D01*
X146050Y406367D01*
D02*
G37*
G36*
X156090Y369570D02*
X147320D01*
Y360800D01*
X156090D01*
Y369570D01*
D02*
G37*
G36*
X144780D02*
X136010D01*
Y360800D01*
X144780D01*
Y369570D01*
D02*
G37*
G36*
X239858Y375090D02*
X219778D01*
Y369679D01*
X213920D01*
X212149Y369327D01*
X210647Y368323D01*
X210647Y368323D01*
X196203Y353879D01*
X175920D01*
X175920Y353879D01*
X174149Y353527D01*
X172647Y352523D01*
X168884Y348760D01*
X158100D01*
Y333180D01*
X177180D01*
Y343964D01*
X177837Y344621D01*
X198120D01*
X198120Y344621D01*
X199891Y344973D01*
X201393Y345977D01*
X215837Y360421D01*
X219778D01*
Y355010D01*
X239858D01*
Y375090D01*
D02*
G37*
G36*
X84220Y353190D02*
X76200D01*
Y344170D01*
X84220D01*
Y353190D01*
D02*
G37*
G36*
X73660D02*
X65640D01*
Y344170D01*
X73660D01*
Y353190D01*
D02*
G37*
G36*
X151260Y350600D02*
X142240D01*
Y342580D01*
X151260D01*
Y350600D01*
D02*
G37*
G36*
X139700D02*
X130680D01*
Y342580D01*
X139700D01*
Y350600D01*
D02*
G37*
G36*
X273050Y359377D02*
X270429Y359032D01*
X267987Y358020D01*
X265889Y356411D01*
X264280Y354313D01*
X263268Y351871D01*
X262923Y349250D01*
X263268Y346629D01*
X264280Y344187D01*
X265889Y342089D01*
X267987Y340480D01*
X270429Y339468D01*
X273050Y339123D01*
X275671Y339468D01*
X278113Y340480D01*
X280211Y342089D01*
X281820Y344187D01*
X282832Y346629D01*
X283177Y349250D01*
X282832Y351871D01*
X281820Y354313D01*
X280211Y356411D01*
X278113Y358020D01*
X275671Y359032D01*
X273050Y359377D01*
D02*
G37*
G36*
X115570D02*
X112949Y359032D01*
X110507Y358020D01*
X108409Y356411D01*
X106800Y354313D01*
X105788Y351871D01*
X105443Y349250D01*
X105788Y346629D01*
X106800Y344187D01*
X108409Y342089D01*
X110507Y340480D01*
X112949Y339468D01*
X115570Y339123D01*
X118191Y339468D01*
X120633Y340480D01*
X122731Y342089D01*
X124340Y344187D01*
X125352Y346629D01*
X125697Y349250D01*
X125352Y351871D01*
X124340Y354313D01*
X122731Y356411D01*
X120633Y358020D01*
X118191Y359032D01*
X115570Y359377D01*
D02*
G37*
G36*
X84220Y341630D02*
X76200D01*
Y332610D01*
X84220D01*
Y341630D01*
D02*
G37*
G36*
X73660D02*
X65640D01*
Y332610D01*
X73660D01*
Y341630D01*
D02*
G37*
G36*
X151260Y340040D02*
X142240D01*
Y332020D01*
X151260D01*
Y340040D01*
D02*
G37*
G36*
X139700D02*
X130680D01*
Y332020D01*
X139700D01*
Y340040D01*
D02*
G37*
G36*
X116840Y333809D02*
Y325120D01*
X125529D01*
X125352Y326471D01*
X124340Y328913D01*
X122731Y331011D01*
X120633Y332620D01*
X118191Y333632D01*
X116840Y333809D01*
D02*
G37*
G36*
X114300D02*
X112949Y333632D01*
X110507Y332620D01*
X108409Y331011D01*
X106800Y328913D01*
X105788Y326471D01*
X105611Y325120D01*
X114300D01*
Y333809D01*
D02*
G37*
G36*
X177180Y329760D02*
X168910D01*
Y323240D01*
X177180D01*
Y329760D01*
D02*
G37*
G36*
X166370D02*
X158100D01*
Y323240D01*
X166370D01*
Y329760D01*
D02*
G37*
G36*
X203080Y338970D02*
X183000D01*
Y318890D01*
X203080D01*
Y338970D01*
D02*
G37*
G36*
X177180Y320700D02*
X168910D01*
Y314180D01*
X177180D01*
Y320700D01*
D02*
G37*
G36*
X166370D02*
X158100D01*
Y314180D01*
X166370D01*
Y320700D01*
D02*
G37*
G36*
X125529Y322580D02*
X116840D01*
Y313891D01*
X118191Y314068D01*
X120633Y315080D01*
X122731Y316689D01*
X124340Y318787D01*
X125352Y321229D01*
X125529Y322580D01*
D02*
G37*
G36*
X114300D02*
X105611D01*
X105788Y321229D01*
X106800Y318787D01*
X108409Y316689D01*
X110507Y315080D01*
X112949Y314068D01*
X114300Y313891D01*
Y322580D01*
D02*
G37*
G36*
X273050Y333977D02*
X270429Y333632D01*
X267987Y332620D01*
X265889Y331011D01*
X264280Y328913D01*
X263268Y326471D01*
X262923Y323850D01*
X263268Y321229D01*
X264280Y318787D01*
X265889Y316689D01*
X267987Y315080D01*
X270429Y314068D01*
X273050Y313723D01*
X275671Y314068D01*
X278113Y315080D01*
X280211Y316689D01*
X281820Y318787D01*
X282832Y321229D01*
X283177Y323850D01*
X282832Y326471D01*
X281820Y328913D01*
X280211Y331011D01*
X278113Y332620D01*
X275671Y333632D01*
X273050Y333977D01*
D02*
G37*
G36*
X84220Y322710D02*
X76200D01*
Y313690D01*
X84220D01*
Y322710D01*
D02*
G37*
G36*
X73660D02*
X65640D01*
Y313690D01*
X73660D01*
Y322710D01*
D02*
G37*
G36*
X84220Y311150D02*
X76200D01*
Y302130D01*
X84220D01*
Y311150D01*
D02*
G37*
G36*
X73660D02*
X65640D01*
Y302130D01*
X73660D01*
Y311150D01*
D02*
G37*
G36*
X240030Y318737D02*
X237409Y318392D01*
X234967Y317380D01*
X232869Y315771D01*
X231260Y313673D01*
X230248Y311231D01*
X229903Y308610D01*
X230248Y305989D01*
X231260Y303547D01*
X232869Y301449D01*
X234967Y299840D01*
X237409Y298828D01*
X240030Y298483D01*
X242651Y298828D01*
X245093Y299840D01*
X247191Y301449D01*
X248800Y303547D01*
X249812Y305989D01*
X250157Y308610D01*
X249812Y311231D01*
X248800Y313673D01*
X247191Y315771D01*
X245093Y317380D01*
X242651Y318392D01*
X240030Y318737D01*
D02*
G37*
G36*
X151260Y330600D02*
X130680D01*
Y312020D01*
X136341D01*
Y301570D01*
X130930D01*
Y297409D01*
X126523D01*
X125685Y298364D01*
X125697Y298450D01*
X125352Y301071D01*
X124340Y303513D01*
X122731Y305611D01*
X120633Y307220D01*
X118191Y308232D01*
X115570Y308577D01*
X112949Y308232D01*
X110507Y307220D01*
X108409Y305611D01*
X106800Y303513D01*
X105788Y301071D01*
X105443Y298450D01*
X105788Y295829D01*
X106800Y293387D01*
X108409Y291289D01*
X110507Y289680D01*
X112949Y288668D01*
X115570Y288323D01*
X116932Y288503D01*
X118700Y288151D01*
X118700Y288151D01*
X130930D01*
Y283990D01*
X151010D01*
Y301570D01*
X145599D01*
Y312020D01*
X151260D01*
Y330600D01*
D02*
G37*
G36*
X193040Y313657D02*
X190419Y313312D01*
X187977Y312300D01*
X185879Y310691D01*
X184270Y308593D01*
X183258Y306151D01*
X182913Y303530D01*
X183258Y300909D01*
X184270Y298467D01*
X185879Y296369D01*
X187977Y294760D01*
X190419Y293748D01*
X193040Y293403D01*
X195661Y293748D01*
X198103Y294760D01*
X200201Y296369D01*
X201810Y298467D01*
X202822Y300909D01*
X203167Y303530D01*
X202822Y306151D01*
X201810Y308593D01*
X200201Y310691D01*
X198103Y312300D01*
X195661Y313312D01*
X193040Y313657D01*
D02*
G37*
G36*
X273050Y308577D02*
X270429Y308232D01*
X267987Y307220D01*
X265889Y305611D01*
X264280Y303513D01*
X263268Y301071D01*
X262923Y298450D01*
X263268Y295829D01*
X264280Y293387D01*
X265889Y291289D01*
X267987Y289680D01*
X270429Y288668D01*
X273050Y288323D01*
X275671Y288668D01*
X278113Y289680D01*
X280211Y291289D01*
X281820Y293387D01*
X282832Y295829D01*
X283177Y298450D01*
X282832Y301071D01*
X281820Y303513D01*
X280211Y305611D01*
X278113Y307220D01*
X275671Y308232D01*
X273050Y308577D01*
D02*
G37*
G36*
X84060Y293500D02*
X76040D01*
Y284480D01*
X84060D01*
Y293500D01*
D02*
G37*
G36*
X73500D02*
X65480D01*
Y284480D01*
X73500D01*
Y293500D01*
D02*
G37*
G36*
X194310Y288089D02*
Y279400D01*
X202999D01*
X202822Y280751D01*
X201810Y283193D01*
X200201Y285291D01*
X198103Y286900D01*
X195661Y287912D01*
X194310Y288089D01*
D02*
G37*
G36*
X191770D02*
X190419Y287912D01*
X187977Y286900D01*
X185879Y285291D01*
X184270Y283193D01*
X183258Y280751D01*
X183081Y279400D01*
X191770D01*
Y288089D01*
D02*
G37*
G36*
X250070Y293250D02*
X229990D01*
Y273170D01*
X250070D01*
Y293250D01*
D02*
G37*
G36*
X84060Y281940D02*
X76040D01*
Y272920D01*
X84060D01*
Y281940D01*
D02*
G37*
G36*
X73500D02*
X65480D01*
Y272920D01*
X73500D01*
Y281940D01*
D02*
G37*
G36*
X202999Y276860D02*
X194310D01*
Y268171D01*
X195661Y268348D01*
X198103Y269360D01*
X200201Y270969D01*
X201810Y273067D01*
X202822Y275509D01*
X202999Y276860D01*
D02*
G37*
G36*
X191770D02*
X183081D01*
X183258Y275509D01*
X184270Y273067D01*
X185879Y270969D01*
X187977Y269360D01*
X190419Y268348D01*
X191770Y268171D01*
Y276860D01*
D02*
G37*
G36*
X273050Y283177D02*
X270429Y282832D01*
X267987Y281820D01*
X265889Y280211D01*
X264280Y278113D01*
X263268Y275671D01*
X262923Y273050D01*
X263268Y270429D01*
X264280Y267987D01*
X265889Y265889D01*
X267987Y264280D01*
X270429Y263268D01*
X273050Y262923D01*
X275671Y263268D01*
X278113Y264280D01*
X280211Y265889D01*
X281820Y267987D01*
X282832Y270429D01*
X283177Y273050D01*
X282832Y275671D01*
X281820Y278113D01*
X280211Y280211D01*
X278113Y281820D01*
X275671Y282832D01*
X273050Y283177D01*
D02*
G37*
G36*
X115570D02*
X112949Y282832D01*
X110507Y281820D01*
X108409Y280211D01*
X106800Y278113D01*
X105788Y275671D01*
X105443Y273050D01*
X105788Y270429D01*
X106800Y267987D01*
X108409Y265889D01*
X110507Y264280D01*
X112949Y263268D01*
X115570Y262923D01*
X118191Y263268D01*
X120633Y264280D01*
X122731Y265889D01*
X124340Y267987D01*
X125352Y270429D01*
X125697Y273050D01*
X125352Y275671D01*
X124340Y278113D01*
X122731Y280211D01*
X120633Y281820D01*
X118191Y282832D01*
X115570Y283177D01*
D02*
G37*
G36*
X151010Y280570D02*
X130930D01*
Y268286D01*
X119523Y256880D01*
X118191Y257432D01*
X115570Y257777D01*
X112949Y257432D01*
X110507Y256420D01*
X108409Y254811D01*
X107441Y253549D01*
X90170D01*
X90170Y253549D01*
X88399Y253197D01*
X86897Y252193D01*
X86897Y252193D01*
X64627Y229923D01*
X63623Y228421D01*
X63271Y226650D01*
X63271Y226650D01*
Y208160D01*
X59110D01*
Y188080D01*
X63271D01*
Y182760D01*
X60380D01*
Y162680D01*
X64541D01*
Y157360D01*
X59110D01*
Y137280D01*
X63271D01*
Y131960D01*
X57840D01*
Y111880D01*
X75420D01*
Y131960D01*
X72529D01*
Y137280D01*
X76690D01*
Y157360D01*
X73799D01*
Y162680D01*
X77960D01*
Y182760D01*
X72529D01*
Y188080D01*
X76690D01*
Y208160D01*
X72529D01*
Y224733D01*
X92087Y244291D01*
X106094D01*
X106800Y242587D01*
X108409Y240489D01*
X110507Y238880D01*
X112949Y237868D01*
X115570Y237523D01*
X118191Y237868D01*
X120633Y238880D01*
X122731Y240489D01*
X124340Y242587D01*
X125352Y245029D01*
X125697Y247650D01*
X125428Y249692D01*
X138726Y262990D01*
X151010D01*
Y280570D01*
D02*
G37*
G36*
X193040Y262857D02*
X190419Y262512D01*
X187977Y261500D01*
X185879Y259891D01*
X184270Y257793D01*
X183258Y255351D01*
X182913Y252730D01*
X183258Y250109D01*
X184270Y247667D01*
X185879Y245569D01*
X187977Y243960D01*
X190419Y242948D01*
X193040Y242603D01*
X195661Y242948D01*
X198103Y243960D01*
X200201Y245569D01*
X201810Y247667D01*
X202822Y250109D01*
X203167Y252730D01*
X202822Y255351D01*
X201810Y257793D01*
X200201Y259891D01*
X198103Y261500D01*
X195661Y262512D01*
X193040Y262857D01*
D02*
G37*
G36*
X221810Y250340D02*
X216290D01*
Y242570D01*
X221810D01*
Y250340D01*
D02*
G37*
G36*
X213750D02*
X208230D01*
Y242570D01*
X213750D01*
Y250340D01*
D02*
G37*
G36*
X273050Y257777D02*
X270429Y257432D01*
X267987Y256420D01*
X265889Y254811D01*
X264280Y252713D01*
X263268Y250271D01*
X262923Y247650D01*
X263268Y245029D01*
X264280Y242587D01*
X265889Y240489D01*
X267987Y238880D01*
X270429Y237868D01*
X273050Y237523D01*
X275671Y237868D01*
X278113Y238880D01*
X280211Y240489D01*
X281820Y242587D01*
X282832Y245029D01*
X283177Y247650D01*
X282832Y250271D01*
X281820Y252713D01*
X280211Y254811D01*
X278113Y256420D01*
X275671Y257432D01*
X273050Y257777D01*
D02*
G37*
G36*
X213750Y240030D02*
X208230D01*
Y232260D01*
X213750D01*
Y240030D01*
D02*
G37*
G36*
X161290Y228510D02*
Y220980D01*
X168820D01*
X168681Y222031D01*
X167785Y224193D01*
X166360Y226050D01*
X164503Y227475D01*
X162341Y228371D01*
X161290Y228510D01*
D02*
G37*
G36*
X158750D02*
X157699Y228371D01*
X155537Y227475D01*
X153680Y226050D01*
X152255Y224193D01*
X151359Y222031D01*
X151221Y220980D01*
X158750D01*
Y228510D01*
D02*
G37*
G36*
X115570Y232377D02*
X112949Y232032D01*
X110507Y231020D01*
X108409Y229411D01*
X106800Y227313D01*
X105788Y224871D01*
X105443Y222250D01*
X105788Y219629D01*
X106800Y217187D01*
X108409Y215089D01*
X110507Y213480D01*
X112949Y212468D01*
X115570Y212123D01*
X118191Y212468D01*
X120633Y213480D01*
X122731Y215089D01*
X123451Y216028D01*
X124721Y215633D01*
Y203503D01*
X123451Y203072D01*
X122731Y204011D01*
X120633Y205620D01*
X118191Y206632D01*
X115570Y206977D01*
X112949Y206632D01*
X110507Y205620D01*
X108409Y204011D01*
X107441Y202749D01*
X97690D01*
Y208160D01*
X80110D01*
Y188080D01*
X97690D01*
Y193491D01*
X106094D01*
X106800Y191787D01*
X108409Y189689D01*
X110507Y188080D01*
X112949Y187068D01*
X115570Y186723D01*
X118191Y187068D01*
X120633Y188080D01*
X122731Y189689D01*
X123451Y190628D01*
X124721Y190197D01*
Y178103D01*
X123451Y177672D01*
X122731Y178611D01*
X120633Y180220D01*
X118191Y181232D01*
X115570Y181577D01*
X112949Y181232D01*
X110507Y180220D01*
X108409Y178611D01*
X107441Y177349D01*
X98960D01*
Y182760D01*
X81380D01*
Y162680D01*
X98960D01*
Y168091D01*
X106094D01*
X106800Y166387D01*
X108409Y164289D01*
X110507Y162680D01*
X112949Y161668D01*
X115570Y161323D01*
X118191Y161668D01*
X120633Y162680D01*
X122731Y164289D01*
X123451Y165228D01*
X124721Y164797D01*
Y152703D01*
X123451Y152272D01*
X122731Y153211D01*
X120633Y154820D01*
X118191Y155832D01*
X115570Y156177D01*
X112949Y155832D01*
X110507Y154820D01*
X108409Y153211D01*
X107441Y151949D01*
X97690D01*
Y157360D01*
X80110D01*
Y137280D01*
X97690D01*
Y142691D01*
X106094D01*
X106800Y140987D01*
X108409Y138889D01*
X110507Y137280D01*
X112949Y136268D01*
X115570Y135923D01*
X118191Y136268D01*
X120633Y137280D01*
X122731Y138889D01*
X123451Y139828D01*
X124721Y139397D01*
Y127303D01*
X123451Y126872D01*
X122731Y127811D01*
X120633Y129420D01*
X118191Y130432D01*
X115570Y130777D01*
X112949Y130432D01*
X110507Y129420D01*
X108409Y127811D01*
X107441Y126549D01*
X96420D01*
Y131960D01*
X78840D01*
Y111880D01*
X96420D01*
Y117291D01*
X106094D01*
X106800Y115587D01*
X108409Y113489D01*
X110507Y111880D01*
X112949Y110868D01*
X115570Y110523D01*
X118191Y110868D01*
X120633Y111880D01*
X122731Y113489D01*
X123451Y114428D01*
X124721Y113997D01*
Y103887D01*
X98184Y77350D01*
X84650D01*
Y57270D01*
X104730D01*
Y70804D01*
X132623Y98697D01*
X132623Y98697D01*
X133627Y100199D01*
X133979Y101970D01*
X133979Y101970D01*
Y220980D01*
X133627Y222751D01*
X132623Y224253D01*
X131121Y225257D01*
X129350Y225609D01*
X125046D01*
X124340Y227313D01*
X122731Y229411D01*
X120633Y231020D01*
X118191Y232032D01*
X115570Y232377D01*
D02*
G37*
G36*
X144780Y210041D02*
X143791Y209844D01*
X141876Y208564D01*
X140596Y206649D01*
X140147Y204390D01*
Y200660D01*
X144780D01*
Y210041D01*
D02*
G37*
G36*
Y198120D02*
X140147D01*
Y194390D01*
X140596Y192131D01*
X141876Y190216D01*
X143791Y188936D01*
X144780Y188739D01*
Y198120D01*
D02*
G37*
G36*
X216050Y97350D02*
X208280D01*
Y91830D01*
X216050D01*
Y97350D01*
D02*
G37*
G36*
X194460D02*
X186690D01*
Y91830D01*
X194460D01*
Y97350D01*
D02*
G37*
G36*
X171600D02*
X163830D01*
Y91830D01*
X171600D01*
Y97350D01*
D02*
G37*
G36*
X227330D02*
X219560D01*
Y91830D01*
X227330D01*
Y97350D01*
D02*
G37*
G36*
X205740D02*
X197970D01*
Y91830D01*
X205740D01*
Y97350D01*
D02*
G37*
G36*
X184150D02*
X176380D01*
Y91830D01*
X184150D01*
Y97350D01*
D02*
G37*
G36*
X161290D02*
X153520D01*
Y91830D01*
X161290D01*
Y97350D01*
D02*
G37*
G36*
X237640Y89290D02*
X229870D01*
Y83770D01*
X237640D01*
Y89290D01*
D02*
G37*
G36*
X227330D02*
X219560D01*
Y83770D01*
X227330D01*
Y89290D01*
D02*
G37*
G36*
X216050D02*
X208280D01*
Y83770D01*
X216050D01*
Y89290D01*
D02*
G37*
G36*
X205740D02*
X197970D01*
Y83770D01*
X205740D01*
Y89290D01*
D02*
G37*
G36*
X194460D02*
X186690D01*
Y83770D01*
X194460D01*
Y89290D01*
D02*
G37*
G36*
X184150D02*
X176380D01*
Y83770D01*
X184150D01*
Y89290D01*
D02*
G37*
G36*
X171600D02*
X163830D01*
Y83770D01*
X171600D01*
Y89290D01*
D02*
G37*
G36*
X161290D02*
X153520D01*
Y83770D01*
X161290D01*
Y89290D01*
D02*
G37*
G36*
X203200Y68547D02*
X200579Y68202D01*
X198137Y67190D01*
X196039Y65581D01*
X194430Y63483D01*
X193418Y61041D01*
X193073Y58420D01*
X193418Y55799D01*
X194430Y53357D01*
X196039Y51259D01*
X198137Y49650D01*
X200579Y48638D01*
X203200Y48293D01*
X205821Y48638D01*
X208263Y49650D01*
X210361Y51259D01*
X211970Y53357D01*
X212982Y55799D01*
X213327Y58420D01*
X212982Y61041D01*
X211970Y63483D01*
X210361Y65581D01*
X208263Y67190D01*
X205821Y68202D01*
X203200Y68547D01*
D02*
G37*
G36*
X169545D02*
X166924Y68202D01*
X164482Y67190D01*
X162384Y65581D01*
X160775Y63483D01*
X159763Y61041D01*
X159418Y58420D01*
X159763Y55799D01*
X160775Y53357D01*
X162384Y51259D01*
X164482Y49650D01*
X166924Y48638D01*
X169545Y48293D01*
X172166Y48638D01*
X174608Y49650D01*
X176706Y51259D01*
X178315Y53357D01*
X179327Y55799D01*
X179672Y58420D01*
X179327Y61041D01*
X178315Y63483D01*
X176706Y65581D01*
X174608Y67190D01*
X172166Y68202D01*
X169545Y68547D01*
D02*
G37*
G36*
X135890D02*
X133269Y68202D01*
X130827Y67190D01*
X128729Y65581D01*
X127120Y63483D01*
X126108Y61041D01*
X125763Y58420D01*
X126108Y55799D01*
X127120Y53357D01*
X128729Y51259D01*
X130827Y49650D01*
X133269Y48638D01*
X135890Y48293D01*
X138511Y48638D01*
X140953Y49650D01*
X143051Y51259D01*
X144660Y53357D01*
X145672Y55799D01*
X146017Y58420D01*
X145672Y61041D01*
X144660Y63483D01*
X143051Y65581D01*
X140953Y67190D01*
X138511Y68202D01*
X135890Y68547D01*
D02*
G37*
G36*
X280550Y43060D02*
X260470D01*
Y37649D01*
X246895D01*
Y43060D01*
X226815D01*
Y38919D01*
X213240D01*
Y43060D01*
X193160D01*
Y37649D01*
X179585D01*
Y43060D01*
X159505D01*
Y37649D01*
X145930D01*
Y43060D01*
X125850D01*
Y22980D01*
X145930D01*
Y28391D01*
X159505D01*
Y22980D01*
X179585D01*
Y28391D01*
X193160D01*
Y22980D01*
X213240D01*
Y29661D01*
X226815D01*
Y22980D01*
X246895D01*
Y28391D01*
X260470D01*
Y22980D01*
X280550D01*
Y30371D01*
X281137Y31249D01*
X281489Y33020D01*
Y36830D01*
X281137Y38601D01*
X280550Y39479D01*
Y43060D01*
D02*
G37*
G36*
X31750Y55069D02*
Y36830D01*
X49989D01*
X49737Y39390D01*
X48620Y43074D01*
X46806Y46468D01*
X44364Y49444D01*
X41388Y51885D01*
X37994Y53700D01*
X34311Y54817D01*
X31750Y55069D01*
D02*
G37*
G36*
X29210D02*
X26649Y54817D01*
X22966Y53700D01*
X19572Y51885D01*
X16596Y49444D01*
X14154Y46468D01*
X12340Y43074D01*
X11223Y39390D01*
X10971Y36830D01*
X29210D01*
Y55069D01*
D02*
G37*
G36*
X87140Y28590D02*
X80620D01*
Y20320D01*
X87140D01*
Y28590D01*
D02*
G37*
G36*
X78080D02*
X71560D01*
Y20320D01*
X78080D01*
Y28590D01*
D02*
G37*
G36*
X49989Y34290D02*
X31750D01*
Y16051D01*
X34311Y16303D01*
X37994Y17420D01*
X41388Y19234D01*
X44364Y21676D01*
X46806Y24652D01*
X48620Y28046D01*
X49737Y31730D01*
X49989Y34290D01*
D02*
G37*
G36*
X29210D02*
X10971D01*
X11223Y31730D01*
X12340Y28046D01*
X14154Y24652D01*
X16596Y21676D01*
X19572Y19234D01*
X22966Y17420D01*
X26649Y16303D01*
X29210Y16051D01*
Y34290D01*
D02*
G37*
G36*
X87140Y17780D02*
X80620D01*
Y9510D01*
X87140D01*
Y17780D01*
D02*
G37*
G36*
X78080D02*
X71560D01*
Y9510D01*
X78080D01*
Y17780D01*
D02*
G37*
G36*
X69730Y77350D02*
X49650D01*
Y57270D01*
X55061D01*
Y28590D01*
X52560D01*
Y9510D01*
X68140D01*
Y28590D01*
X64319D01*
Y57270D01*
X69730D01*
Y77350D01*
D02*
G37*
%LPD*%
D13*
X237490Y34290D02*
X238760Y33020D01*
X201930D02*
X203200Y34290D01*
X111760Y223520D02*
X114300Y220980D01*
X59690Y19710D02*
X60350Y19050D01*
X140970Y341310D02*
X143510Y343850D01*
X111760Y248920D02*
X118110D01*
X74770Y283210D02*
X74930Y283370D01*
X607060Y-299720D02*
X787060D01*
D28*
X146050Y142890D02*
D03*
X158750D02*
D03*
X171450D02*
D03*
X184150D02*
D03*
X196850D02*
D03*
X209550D02*
D03*
X222250D02*
D03*
X234950D02*
D03*
X146050Y199390D02*
D03*
X158750D02*
D03*
X171450D02*
D03*
X184150D02*
D03*
X196850D02*
D03*
X209550D02*
D03*
X222250D02*
D03*
X234950D02*
D03*
D29*
X94690Y67310D02*
D03*
X59690D02*
D03*
D30*
X60350Y19050D02*
D03*
X79350D02*
D03*
D31*
X229818Y400050D02*
D03*
Y365050D02*
D03*
X273050Y120650D02*
D03*
X189230Y370840D02*
D03*
X146050D02*
D03*
X115570Y400050D02*
D03*
X43180Y121920D02*
D03*
X240030Y283210D02*
D03*
X193040Y328930D02*
D03*
X169545Y33020D02*
D03*
X203200D02*
D03*
X236855D02*
D03*
X135890D02*
D03*
X270510D02*
D03*
D32*
X167640Y340970D02*
D03*
Y321970D02*
D03*
D33*
X74930Y342900D02*
D03*
X54930D02*
D03*
X74930Y312420D02*
D03*
X54930D02*
D03*
X74770Y283210D02*
D03*
X54770D02*
D03*
X74930Y373380D02*
D03*
X54930D02*
D03*
D34*
X87630Y121920D02*
D03*
X66630D02*
D03*
X88900Y198120D02*
D03*
X67900D02*
D03*
X88900Y147320D02*
D03*
X67900D02*
D03*
X90170Y172720D02*
D03*
X69170D02*
D03*
D35*
X140970Y292780D02*
D03*
Y271780D02*
D03*
D36*
Y341310D02*
D03*
Y321310D02*
D03*
D37*
X215020Y241300D02*
D03*
X232020D02*
D03*
D38*
X162560Y90560D02*
D03*
Y107560D02*
D03*
X228600Y90560D02*
D03*
Y107560D02*
D03*
X207010Y90560D02*
D03*
Y107560D02*
D03*
X185420Y90560D02*
D03*
Y107560D02*
D03*
D39*
X236220Y121920D02*
Y143200D01*
X276860Y33020D02*
Y36830D01*
X203200Y34290D02*
X237490D01*
X209550Y199390D02*
Y210820D01*
X220980Y222250D01*
X30480Y258920D02*
X54770Y283210D01*
X30480Y210820D02*
Y258920D01*
Y210820D02*
X43180Y198120D01*
X22860Y292100D02*
X43180Y312420D01*
X22860Y193040D02*
Y292100D01*
Y193040D02*
X43180Y172720D01*
X15240Y311150D02*
X46990Y342900D01*
X15240Y175260D02*
Y311150D01*
Y175260D02*
X43180Y147320D01*
X114300Y220980D02*
X129350D01*
Y101970D02*
Y220980D01*
X111760Y299720D02*
X118700Y292780D01*
X140970D01*
X146050Y396240D02*
X154940D01*
X143510D02*
X146050D01*
X180340Y370840D02*
X189230D01*
X154940Y396240D02*
X180340Y370840D01*
X140970Y292780D02*
Y321310D01*
X115570Y325120D02*
X120650D01*
X158750Y218440D02*
X160020Y219710D01*
X158750Y202240D02*
Y218440D01*
X136840Y341310D02*
X140970D01*
X94690Y67310D02*
X129350Y101970D01*
X234950Y209550D02*
Y241300D01*
Y199390D02*
Y209550D01*
X168910Y123190D02*
X184150Y138430D01*
X285090Y132690D02*
Y177190D01*
X278130Y184150D02*
X285090Y177190D01*
X273050Y120650D02*
X285090Y132690D01*
X183800Y162210D02*
X263810D01*
X273050Y171450D01*
X168910Y184150D02*
X278130D01*
X176910Y173100D02*
X250190D01*
X222250Y113910D02*
Y145740D01*
Y113910D02*
X228600Y107560D01*
X232800D02*
X243840Y96520D01*
X228600Y107560D02*
X232800D01*
X270510Y33020D02*
X276860D01*
X171450Y149860D02*
X183800Y162210D01*
X185420Y127000D02*
X196850Y138430D01*
X158750Y154940D02*
X176910Y173100D01*
X146050Y161290D02*
X168910Y184150D01*
X243840Y63500D02*
Y96520D01*
X238760Y58420D02*
X243840Y63500D01*
X169545Y33020D02*
X201930D01*
X135890D02*
X169545D01*
X207010Y107560D02*
Y123190D01*
X209550Y125730D01*
Y145740D01*
X185420Y107560D02*
Y123190D01*
X162560Y107560D02*
Y123190D01*
X146050Y145740D02*
Y161290D01*
X238760Y33020D02*
X270510D01*
X191770Y278130D02*
X193040D01*
X209550Y145740D02*
X210820Y144470D01*
X158750Y145740D02*
Y154940D01*
X269730Y123970D02*
X273050Y120650D01*
X118110Y248920D02*
X140970Y271780D01*
X69170Y146050D02*
Y172720D01*
X67900Y144780D02*
Y147320D01*
Y123190D02*
Y144780D01*
X66630Y121920D02*
X67900Y123190D01*
Y173990D02*
X69170Y172720D01*
X67900Y173990D02*
Y198120D01*
X46990Y342900D02*
X54930D01*
X43180Y312420D02*
X54930D01*
X7930Y157170D02*
Y326380D01*
Y157170D02*
X43180Y121920D01*
X7930Y326380D02*
X54930Y373380D01*
X59690Y19710D02*
Y67310D01*
X167640Y340970D02*
X175920Y349250D01*
X198120D01*
X213920Y365050D01*
X229818D01*
X87630Y121920D02*
X111760D01*
X88900Y147320D02*
X111760D01*
X90170Y172720D02*
X111760D01*
X88900Y198120D02*
X111760D01*
X90170Y248920D02*
X111760D01*
X67900Y226650D02*
X90170Y248920D01*
X67900Y198120D02*
Y226650D01*
D40*
X209550Y196850D02*
Y199390D01*
X184150Y142890D02*
Y145740D01*
Y138430D02*
Y142890D01*
X162560Y123190D02*
X168910D01*
X196850Y138430D02*
Y145740D01*
X185420Y123190D02*
Y127000D01*
X145090Y201280D02*
X146050Y202240D01*
X67900Y144780D02*
X69170Y146050D01*
D41*
X193040Y400050D02*
X229818D01*
X189230Y396240D02*
X193040Y400050D01*
X229818D02*
X273050D01*
D42*
X278550Y209550D02*
X293370Y194730D01*
X234950Y209550D02*
X278550D01*
X293370Y102870D02*
Y194730D01*
X270510Y80010D02*
X293370Y102870D01*
X270510Y58420D02*
Y80010D01*
D43*
X273050Y400050D02*
D03*
Y374650D02*
D03*
Y349250D02*
D03*
Y323850D02*
D03*
Y298450D02*
D03*
Y273050D02*
D03*
Y247650D02*
D03*
Y222250D02*
D03*
Y196850D02*
D03*
Y171450D02*
D03*
Y146050D02*
D03*
X189230Y396240D02*
D03*
X146050D02*
D03*
X115570Y120650D02*
D03*
Y146050D02*
D03*
Y171450D02*
D03*
Y196850D02*
D03*
Y222250D02*
D03*
Y247650D02*
D03*
Y273050D02*
D03*
Y298450D02*
D03*
Y323850D02*
D03*
Y349250D02*
D03*
Y374650D02*
D03*
X43180Y223520D02*
D03*
Y198120D02*
D03*
Y172720D02*
D03*
Y147320D02*
D03*
X240030Y308610D02*
D03*
X193040Y252730D02*
D03*
Y278130D02*
D03*
Y303530D02*
D03*
X169545Y58420D02*
D03*
X203200D02*
D03*
X236855D02*
D03*
X135890D02*
D03*
X270510D02*
D03*
D44*
X25400Y391280D02*
D03*
X30480Y35560D02*
D03*
D45*
X250190Y173100D02*
D03*
X236220Y121920D02*
D03*
X220980Y222250D02*
D03*
X162560Y123190D02*
D03*
X207010D02*
D03*
X185420D02*
D03*
X160020Y219710D02*
D03*
M02*
